<?xml version="1.0" encoding="utf-8"?>
<!-- Generator: Adobe Illustrator 18.0.0, SVG Export Plug-In . SVG Version: 6.00 Build 0)  -->
<!DOCTYPE svg PUBLIC "-//W3C//DTD SVG 1.1//EN" "http://www.w3.org/Graphics/SVG/1.1/DTD/svg11.dtd">
<svg version="1.1" xmlns="http://www.w3.org/2000/svg" xmlns:xlink="http://www.w3.org/1999/xlink" x="0px" y="0px"
	 viewBox="0 0 612 600.8" enable-background="new 0 0 612 600.8" xml:space="preserve">
<g id="Layer_2" display="none">
	<rect x="-46.2" y="-21.3" display="inline" width="693.8" height="667.3"/>
</g>
<g id="Layer_1">
	<path fill="#FFFFFF" d="M603,479.4l-0.4,0.4l-13-13L499,557.4c-16,0-32.1,0-48.1,0c0.3-0.3,0.7-0.6,1-0.9
		c19.5-17.3,38.9-36.3,54.6-57.2c12.8-17.2,21.8-38,22.7-59.5c0.9-22.1-7.8-42.9-22.5-59.1c-19.5-21.5-47.3-34-74.5-42.4
		c-43.1-13.2-88.9-16.8-133.8-17.1l69.3-69.3h0v0l0,0l0,0v-15.2l0,0c1.4-41.9-4-85.6-24.6-122.7c-16.3-29.3-43.4-51.4-77.2-55.8
		c-21.2-2.8-42.4,1.5-62.2,9.5l51.7-51.7L240.1,0.8L4.4,236.6l15.1,15.1L44.2,227c17.1,21.8,32.1,45.2,42.9,70.8
		c12.7,30.2,19.1,62.4,22.8,94.8c6.2,54.5,6.1,109.8,6,164.7c-19.4,0-38.7,0-58.1,0c-1.6,0-3.2,0-4.8,0c-1.8,0-6.1,4.8-7,5.6
		c-5.2,4.7-10.3,9.8-15.3,14.8c-5,5-10,9.9-14.7,15.1c0.5-0.5-5.7,6.8-5.5,6.8c36.8,0,73.5,0,110.3,0c71.4,0,142.8,0,214.2,0
		c46.6,0,154.9,0,154.9,0l116.3-117.1L603,479.4z M316,194.4c7.7,26.7,9.9,54.8,9.2,82.6l-68.8,68.8V111.1
		C287.9,127.9,306.5,161.1,316,194.4z M241.1,104.7v346.2l-30.6,30.6l30.6,30.6v45.4c-10.8,0-21.6,0-32.3,0
		c0-56.1,0.3-112.3-1.2-168.4c-1.1-40.5-3.1-81.2-10.3-121.2c-4.7-26-12-51.6-23.4-75.5c-9.9-20.8-22.9-39.8-37.6-57.4l24.7-24.7
		C186.7,100,214.9,96.2,241.1,104.7z M134.6,413.8c-1.9-35.6-5.6-71.5-15.3-105.9c-10.7-37.8-29.9-71.4-53.8-102.1l18.1-18.1
		c69.7,88.6,80,141.1,80.6,369.7c-9,0-18.1,0-27.1,0C137.1,509.5,137.2,461.6,134.6,413.8z M256.4,557.4V512l30.6-30.6l-30.6-30.6
		v-87.3c46.7,0.4,94.2,4.3,138.8,18.8c27.8,9.1,55.8,23.3,74.2,46.7c13.3,17,19.3,38.4,16.9,59.8c-1.2,10.3-4.2,20.4-8.6,29.7
		c-2.3,4.9-5,9.7-8,14.2c-6.6,4.4-13.6,8.4-20.9,11.7c-15.5,7.3-32.5,11.6-49.7,12.8C351.6,557.4,304,557.4,256.4,557.4z"/>
</g>
</svg>
